<?xml version="1.0" standalone="no"?>
<!DOCTYPE svg PUBLIC "-//W3C//DTD SVG 20010904//EN"
 "http://www.w3.org/TR/2001/REC-SVG-20010904/DTD/svg10.dtd">
<svg version="1.0" xmlns="http://www.w3.org/2000/svg"
 width="225.000000pt" height="225.000000pt" viewBox="0 0 225.000000 225.000000"
 preserveAspectRatio="xMidYMid meet">

<g transform="translate(0.000000,225.000000) scale(0.100000,-0.100000)"
fill="#000000" stroke="none">
<path d="M995 2224 c-22 -8 -47 -23 -57 -34 -9 -11 -21 -20 -28 -20 -21 0 -89
-40 -100 -59 -13 -26 -13 -117 1 -142 7 -15 7 -24 -1 -34 -16 -19 2 -70 37
-107 l27 -28 -22 -16 c-41 -29 -25 -152 27 -198 17 -15 21 -30 21 -78 0 -72
17 -115 60 -151 31 -26 32 -30 24 -68 -8 -38 -14 -43 -64 -64 -394 -161 -415
-171 -447 -204 -69 -71 -110 -190 -120 -348 l-6 -103 -48 0 c-38 0 -51 -4 -59
-20 -7 -13 -10 -96 -8 -235 l3 -215 -117 0 -118 0 0 -50 0 -50 1125 0 1125 0
0 50 0 50 -140 0 -140 0 0 323 c0 290 -2 332 -20 401 -24 95 -63 169 -110 208
-33 28 -72 45 -365 164 -66 27 -122 49 -123 50 -2 2 -8 19 -12 40 -8 35 -7 39
32 73 39 35 40 39 50 126 8 72 15 95 33 113 43 43 56 169 20 189 -11 7 -10 18
5 62 13 39 15 62 9 78 -5 14 -9 44 -9 68 0 61 -41 109 -94 109 -34 0 -36 2
-36 33 0 46 -32 77 -73 69 -20 -4 -36 -1 -48 10 -18 16 -83 11 -95 -7 -3 -5
-18 0 -34 11 -32 23 -49 23 -105 4z m190 -267 c17 1 41 2 55 3 42 2 88 -11
106 -31 9 -10 23 -19 30 -19 46 0 67 -119 40 -227 -20 -78 -75 -202 -99 -222
-15 -11 -18 -10 -27 14 -5 14 -10 31 -10 36 0 5 -11 21 -25 34 -21 21 -33 25
-89 25 -76 0 -108 -20 -129 -84 l-13 -39 -27 29 c-15 16 -41 63 -59 104 -26
62 -32 92 -36 170 l-4 95 30 22 c17 12 33 36 37 53 6 25 9 28 25 20 31 -16 86
-12 111 10 14 11 30 17 39 13 8 -4 29 -6 45 -6z m-302 -264 c2 -43 3 -80 1
-82 -2 -2 -11 12 -19 32 -15 37 -20 108 -8 120 16 16 21 2 26 -70z m593 53 c7
-28 -22 -136 -36 -136 -5 0 -7 15 -5 33 3 17 7 53 10 80 7 51 21 62 31 23z
m-250 -253 c52 -57 44 -68 -56 -71 -109 -3 -122 5 -89 52 45 67 94 73 145 19z
m-51 -188 c39 0 84 3 102 7 32 7 32 7 48 -47 15 -55 15 -56 -16 -160 l-33
-106 -114 3 -114 3 -34 110 c-22 71 -30 113 -24 119 6 6 10 20 10 32 0 48 9
55 59 47 25 -4 78 -8 116 -8z m-277 -228 c4 -20 -25 -34 -40 -19 -15 15 -1 44
19 40 10 -2 19 -11 21 -21z m576 7 c8 -21 -1 -34 -24 -34 -19 0 -34 25 -24 41
9 15 41 10 48 -7z m-839 -24 c3 -6 -1 -7 -9 -4 -18 7 -21 14 -7 14 6 0 13 -4
16 -10z m612 -145 l-22 -65 -61 0 -61 0 -22 56 c-11 31 -21 60 -21 65 0 5 47
9 104 9 l104 0 -21 -65z m-349 12 c4 -20 -25 -34 -40 -19 -15 15 -1 44 19 40
10 -2 19 -11 21 -21z m576 7 c8 -21 -1 -34 -24 -34 -20 0 -30 17 -22 38 6 17
39 15 46 -4z m221 -459 l0 -350 -524 -3 c-378 -1 -528 1 -537 9 -19 16 -21
668 -2 687 9 9 137 12 538 10 l525 -3 0 -350z m-1251 60 c4 -13 -10 -15 -94
-15 -84 0 -98 2 -94 15 9 22 179 22 188 0z m6 -75 l0 -40 -100 0 -100 0 0 40
0 40 100 0 100 0 0 -40z m0 -135 l0 -75 -100 0 -100 0 0 75 0 75 100 0 100 0
0 -75z m0 -135 l0 -40 -100 0 -100 0 0 40 0 40 100 0 100 0 0 -40z m-6 -75
c-5 -12 -25 -15 -94 -15 -82 0 -110 7 -93 24 3 3 48 6 99 6 79 0 92 -2 88 -15z
m1784 -63 l-3 -27 -1100 0 -1100 0 -3 28 -3 27 1106 0 1106 0 -3 -28z"/>
</g>
</svg>
