<?xml version="1.0" standalone="no"?>
<!DOCTYPE svg PUBLIC "-//W3C//DTD SVG 20010904//EN"
 "http://www.w3.org/TR/2001/REC-SVG-20010904/DTD/svg10.dtd">
<svg version="1.0" xmlns="http://www.w3.org/2000/svg"
 width="200.000000pt" height="200.000000pt" viewBox="0 0 200.000000 200.000000"
 preserveAspectRatio="xMidYMid meet">

<g transform="translate(0.000000,200.000000) scale(0.100000,-0.100000)"
fill="#000000" stroke="none">
<path d="M905 1901 c-16 -4 -45 -15 -63 -25 -32 -16 -33 -19 -17 -36 26 -29
96 -43 197 -38 142 6 198 45 121 82 -42 20 -187 31 -238 17z"/>
<path d="M802 1770 c3 -48 6 -56 33 -71 48 -28 154 -41 233 -29 37 6 81 19 97
29 27 15 30 23 33 71 3 53 3 54 -16 36 -11 -9 -41 -24 -68 -32 -94 -28 -247
-11 -296 32 -19 18 -19 17 -16 -36z"/>
<path d="M800 1658 c0 -26 6 -37 31 -51 17 -9 33 -26 36 -37 7 -26 41 -35 133
-35 92 0 126 9 133 35 3 11 19 28 36 37 25 14 31 25 31 51 0 33 0 33 -21 13
-28 -26 -93 -41 -179 -41 -86 0 -151 15 -179 41 -21 20 -21 20 -21 -13z"/>
<path d="M775 1570 c-4 -6 -85 -10 -211 -10 l-204 0 0 -102 c0 -57 -3 -119 -6
-139 -7 -41 13 -57 48 -38 15 8 18 16 12 32 -4 12 -9 66 -11 120 l-4 97 185 0
c112 0 187 -4 191 -10 11 -17 44 -11 55 11 9 15 8 24 -1 35 -13 16 -45 19 -54
4z"/>
<path d="M1171 1566 c-9 -11 -10 -20 -1 -35 11 -22 44 -28 55 -11 4 6 79 10
191 10 l185 0 -4 -97 c-2 -54 -7 -108 -11 -120 -6 -16 -3 -24 14 -33 40 -22
47 1 42 148 l-4 132 -203 0 c-125 0 -206 4 -210 10 -9 15 -41 12 -54 -4z"/>
<path d="M832 1485 l-32 -23 25 -20 c69 -55 281 -55 350 0 l25 20 -35 24 c-34
22 -40 23 -105 14 -38 -5 -75 -8 -82 -6 -7 3 -35 7 -63 9 -41 4 -56 1 -83 -18z"/>
<path d="M450 1292 c0 -23 -30 -52 -53 -52 -14 0 -17 -10 -17 -55 l0 -55 620
0 620 0 0 55 c0 47 -3 55 -18 55 -23 0 -52 30 -52 53 0 16 -43 17 -550 17
-528 0 -550 -1 -550 -18z m920 -47 c17 -20 5 -62 -21 -70 -24 -8 -59 19 -59
45 0 37 55 55 80 25z m128 3 c18 -18 15 -43 -8 -63 -17 -15 -24 -16 -45 -7
-43 20 -28 82 20 82 12 0 26 -5 33 -12z m-940 -35 c3 -32 2 -33 -32 -33 -33 0
-36 2 -36 29 0 31 12 41 45 38 15 -2 21 -11 23 -34z m96 31 c10 -4 16 -18 16
-35 0 -26 -3 -29 -35 -29 -32 0 -35 3 -35 29 0 35 20 48 54 35z m110 0 c10 -4
16 -18 16 -35 0 -26 -3 -29 -35 -29 -32 0 -35 3 -35 29 0 35 20 48 54 35z
m110 0 c10 -4 16 -18 16 -35 0 -26 -3 -29 -35 -29 -32 0 -35 3 -35 29 0 35 20
48 54 35z"/>
<path d="M380 1000 l0 -90 620 0 620 0 0 90 0 90 -620 0 -620 0 0 -90z m998 6
c5 -23 -16 -46 -42 -46 -46 0 -62 48 -24 74 19 13 25 14 43 2 11 -7 21 -21 23
-30z m130 0 c8 -39 -52 -63 -78 -31 -16 19 -5 62 18 68 22 5 56 -16 60 -37z
m-960 22 c7 -7 12 -25 12 -40 0 -25 -3 -28 -35 -28 -31 0 -35 3 -35 25 0 44
33 68 58 43z m108 -2 c8 -8 14 -26 14 -40 0 -23 -4 -26 -35 -26 -31 0 -35 3
-35 25 0 26 17 54 33 55 5 0 15 -6 23 -14z m110 0 c8 -8 14 -26 14 -40 0 -23
-4 -26 -35 -26 -31 0 -35 3 -35 25 0 26 17 54 33 55 5 0 15 -6 23 -14z m110 0
c8 -8 14 -26 14 -40 0 -23 -4 -26 -35 -26 -31 0 -35 3 -35 25 0 26 17 54 33
55 5 0 15 -6 23 -14z"/>
<path d="M380 815 c0 -47 3 -55 18 -55 23 0 52 -30 52 -53 0 -16 43 -17 550
-17 528 0 550 1 550 18 0 23 30 52 53 52 14 0 17 10 17 55 l0 55 -620 0 -620
0 0 -55z m981 5 c37 -20 18 -80 -26 -80 -43 0 -58 39 -28 72 19 21 27 22 54 8z
m131 -7 c32 -29 16 -73 -27 -73 -58 0 -59 88 -1 90 5 0 18 -7 28 -17z m-944
-5 c7 -7 12 -22 12 -35 0 -20 -5 -23 -35 -23 -29 0 -35 4 -35 20 0 39 34 62
58 38z m108 -2 c8 -8 14 -24 14 -35 0 -17 -6 -21 -35 -21 -29 0 -35 4 -35 20
0 21 19 49 33 50 5 0 15 -6 23 -14z m110 0 c8 -8 14 -24 14 -35 0 -17 -6 -21
-35 -21 -29 0 -35 4 -35 20 0 21 19 49 33 50 5 0 15 -6 23 -14z m110 0 c8 -8
14 -24 14 -35 0 -17 -6 -21 -35 -21 -29 0 -35 4 -35 20 0 21 19 49 33 50 5 0
15 -6 23 -14z"/>
<path d="M364 722 c-7 -4 -9 -54 -6 -144 l4 -138 129 0 c74 0 130 -4 134 -10
3 -5 17 -10 30 -10 28 0 43 34 25 55 -14 17 -46 20 -55 5 -4 -6 -53 -10 -116
-10 l-109 0 0 90 c0 49 5 101 12 116 11 23 10 28 -7 40 -21 16 -26 17 -41 6z"/>
<path d="M1595 716 c-17 -12 -18 -17 -7 -40 7 -15 12 -67 12 -116 l0 -90 -105
0 c-67 0 -113 5 -125 12 -26 17 -55 -1 -55 -33 0 -18 6 -25 24 -27 13 -2 28 1
34 7 7 7 60 11 138 11 l127 0 4 138 c5 153 -2 171 -47 138z"/>
<path d="M680 580 c-27 -27 -25 -48 4 -62 57 -25 54 -109 -4 -129 l-30 -11 0
-102 c0 -118 11 -159 46 -175 35 -15 573 -15 608 0 35 16 46 57 46 175 l0 102
-30 11 c-57 19 -63 99 -9 127 34 17 37 36 9 64 -19 19 -33 20 -320 20 -287 0
-301 -1 -320 -20z m324 -152 c23 -32 20 -51 -14 -83 -16 -16 -30 -35 -30 -42
0 -7 -7 -13 -15 -13 -24 0 -18 41 11 71 16 17 24 34 21 43 -8 20 -56 21 -63 1
-6 -15 -44 -21 -44 -7 0 4 7 18 16 30 22 32 96 32 118 0z m78 -83 c-22 -86
-30 -105 -45 -105 -13 0 -17 5 -13 18 3 9 15 56 27 105 17 68 25 87 39 87 16
0 15 -8 -8 -105z m-232 70 c0 -8 -24 -27 -52 -41 l-53 -27 53 -25 c34 -17 52
-32 52 -44 0 -23 2 -23 -75 14 -87 43 -87 62 -2 105 72 37 77 38 77 18z m375
-17 c49 -24 65 -37 65 -53 0 -16 -16 -29 -65 -53 -77 -37 -75 -37 -75 -14 0
12 18 27 52 44 l53 25 -53 27 c-28 14 -52 33 -52 41 0 20 0 20 75 -17z m-265
-138 c0 -11 -7 -20 -15 -20 -8 0 -15 9 -15 20 0 11 7 20 15 20 8 0 15 -9 15
-20z"/>
</g>
</svg>
